<svg width="24" height="22" viewBox="0 0 24 22" fill="none" xmlns="http://www.w3.org/2000/svg">
<mask id="path-1-inside-1_211_2339" fill="white">
<path d="M15.0111 10.7646C14.8435 10.7646 14.6879 10.7185 14.5496 10.6444V10.6464C14.5496 10.9101 14.4471 11.1577 14.2612 11.3432C14.0752 11.5292 13.8277 11.6317 13.5643 11.6317C13.3943 11.6317 13.2367 11.5844 13.097 11.5083C13.0828 11.7496 12.9864 11.9751 12.8144 12.1473C12.6284 12.3332 12.381 12.4357 12.1174 12.4357C11.5938 12.4357 11.1685 12.0241 11.1379 11.5082C10.9759 11.5957 10.7927 11.6417 10.6037 11.6295C10.0886 11.5957 9.68521 11.1507 9.68521 10.616V6.18441L9.18059 7.05865C8.98839 7.39303 8.62861 7.60064 8.24124 7.60064C8.05249 7.60064 7.86603 7.55111 7.70089 7.45649C7.49524 7.33727 7.34814 7.14589 7.28697 6.91693C7.22548 6.68784 7.25729 6.44825 7.37618 6.24291C7.37635 6.24291 9.02725 3.38402 9.12797 3.2084C9.13994 3.182 9.17405 3.10542 9.20308 3.04015C9.23079 2.97783 9.25458 2.91388 9.27737 2.84959C9.77523 1.44403 11.008 0.570927 12.4947 0.570927C14.4254 0.570927 15.9961 2.27414 15.9961 4.3677L15.9963 9.77919C15.9963 10.0426 15.894 10.29 15.7082 10.4762C15.5222 10.6621 15.2747 10.7646 15.0111 10.7646L15.0111 10.7646ZM12.4948 1.09447C11.2172 1.09447 10.199 1.81606 9.77084 3.02468C9.74345 3.10143 9.71492 3.17817 9.68163 3.25296C9.58504 3.46959 9.58504 3.46959 9.55781 3.50075L9.55421 3.49763C9.41941 3.75198 9.01894 4.4455 7.8295 6.50493C7.78063 6.58939 7.76767 6.68746 7.7926 6.78126C7.81786 6.87506 7.87837 6.95411 7.96217 7.00248C8.22226 7.15188 8.57847 7.05545 8.72671 6.79717L9.72034 5.07687C9.77971 4.97437 9.89975 4.92403 10.0149 4.95519C10.1293 4.98585 10.2089 5.08966 10.2089 5.20806V10.6162C10.2089 10.8714 10.4014 11.0916 10.6381 11.1072C10.7745 11.1144 10.9018 11.0686 10.9974 10.9732C11.0843 10.8863 11.1322 10.7705 11.1322 10.6467V7.10969C11.1322 6.96505 11.2494 6.8478 11.3941 6.8478C11.5387 6.8478 11.656 6.96489 11.656 7.10969L11.6558 11.4506C11.6558 11.7052 11.8629 11.9123 12.1174 11.9123C12.2411 11.9123 12.3572 11.8644 12.4443 11.7775C12.5312 11.6904 12.5791 11.5743 12.5791 11.4506V7.10969C12.5791 6.96505 12.6962 6.84779 12.841 6.84779C12.9856 6.84779 13.1029 6.96489 13.1029 7.10969L13.1027 10.606V10.6467C13.1027 10.901 13.3098 11.1081 13.5645 11.1081C13.688 11.1081 13.8038 11.0601 13.8913 10.9728C13.9783 10.8861 14.0261 10.7703 14.0261 10.6465V7.10951C14.0261 6.96487 14.1432 6.84761 14.288 6.84761C14.4327 6.84761 14.5499 6.9647 14.5499 7.10951L14.5496 9.77932C14.5496 10.034 14.7567 10.2411 15.0111 10.2411C15.1349 10.2411 15.2507 10.1931 15.3376 10.1063C15.4248 10.0191 15.4725 9.90297 15.4725 9.77932L15.4727 4.36783C15.4727 2.5631 14.1368 1.09452 12.4947 1.09452L12.4948 1.09447Z"/>
</mask>
<path d="M15.0111 10.7646C14.8435 10.7646 14.6879 10.7185 14.5496 10.6444V10.6464C14.5496 10.9101 14.4471 11.1577 14.2612 11.3432C14.0752 11.5292 13.8277 11.6317 13.5643 11.6317C13.3943 11.6317 13.2367 11.5844 13.097 11.5083C13.0828 11.7496 12.9864 11.9751 12.8144 12.1473C12.6284 12.3332 12.381 12.4357 12.1174 12.4357C11.5938 12.4357 11.1685 12.0241 11.1379 11.5082C10.9759 11.5957 10.7927 11.6417 10.6037 11.6295C10.0886 11.5957 9.68521 11.1507 9.68521 10.616V6.18441L9.18059 7.05865C8.98839 7.39303 8.62861 7.60064 8.24124 7.60064C8.05249 7.60064 7.86603 7.55111 7.70089 7.45649C7.49524 7.33727 7.34814 7.14589 7.28697 6.91693C7.22548 6.68784 7.25729 6.44825 7.37618 6.24291C7.37635 6.24291 9.02725 3.38402 9.12797 3.2084C9.13994 3.182 9.17405 3.10542 9.20308 3.04015C9.23079 2.97783 9.25458 2.91388 9.27737 2.84959C9.77523 1.44403 11.008 0.570927 12.4947 0.570927C14.4254 0.570927 15.9961 2.27414 15.9961 4.3677L15.9963 9.77919C15.9963 10.0426 15.894 10.29 15.7082 10.4762C15.5222 10.6621 15.2747 10.7646 15.0111 10.7646L15.0111 10.7646ZM12.4948 1.09447C11.2172 1.09447 10.199 1.81606 9.77084 3.02468C9.74345 3.10143 9.71492 3.17817 9.68163 3.25296C9.58504 3.46959 9.58504 3.46959 9.55781 3.50075L9.55421 3.49763C9.41941 3.75198 9.01894 4.4455 7.8295 6.50493C7.78063 6.58939 7.76767 6.68746 7.7926 6.78126C7.81786 6.87506 7.87837 6.95411 7.96217 7.00248C8.22226 7.15188 8.57847 7.05545 8.72671 6.79717L9.72034 5.07687C9.77971 4.97437 9.89975 4.92403 10.0149 4.95519C10.1293 4.98585 10.2089 5.08966 10.2089 5.20806V10.6162C10.2089 10.8714 10.4014 11.0916 10.6381 11.1072C10.7745 11.1144 10.9018 11.0686 10.9974 10.9732C11.0843 10.8863 11.1322 10.7705 11.1322 10.6467V7.10969C11.1322 6.96505 11.2494 6.8478 11.3941 6.8478C11.5387 6.8478 11.656 6.96489 11.656 7.10969L11.6558 11.4506C11.6558 11.7052 11.8629 11.9123 12.1174 11.9123C12.2411 11.9123 12.3572 11.8644 12.4443 11.7775C12.5312 11.6904 12.5791 11.5743 12.5791 11.4506V7.10969C12.5791 6.96505 12.6962 6.84779 12.841 6.84779C12.9856 6.84779 13.1029 6.96489 13.1029 7.10969L13.1027 10.606V10.6467C13.1027 10.901 13.3098 11.1081 13.5645 11.1081C13.688 11.1081 13.8038 11.0601 13.8913 10.9728C13.9783 10.8861 14.0261 10.7703 14.0261 10.6465V7.10951C14.0261 6.96487 14.1432 6.84761 14.288 6.84761C14.4327 6.84761 14.5499 6.9647 14.5499 7.10951L14.5496 9.77932C14.5496 10.034 14.7567 10.2411 15.0111 10.2411C15.1349 10.2411 15.2507 10.1931 15.3376 10.1063C15.4248 10.0191 15.4725 9.90297 15.4725 9.77932L15.4727 4.36783C15.4727 2.5631 14.1368 1.09452 12.4947 1.09452L12.4948 1.09447Z" fill="#4CAF4F"/>
<path d="M15.0111 10.7646V9.83653H18.2901L15.4975 11.555L15.0111 10.7646ZM14.5496 10.6444H13.6215V9.09368L14.9882 9.82649L14.5496 10.6444ZM14.2612 11.3432L13.6049 10.6869L13.6058 10.6861L14.2612 11.3432ZM13.097 11.5083L12.1704 11.4542L12.2558 9.99351L13.5408 10.6933L13.097 11.5083ZM12.8144 12.1473L13.471 12.8032L13.4707 12.8035L12.8144 12.1473ZM11.1379 11.5082L10.6966 10.6917L11.978 9.99916L12.0643 11.4531L11.1379 11.5082ZM10.6037 11.6295L10.5442 12.5557L10.543 12.5556L10.6037 11.6295ZM9.68521 6.18441L8.88142 5.72045L10.6133 2.72004V6.18441H9.68521ZM9.18059 7.05865L8.37595 6.59615L8.37679 6.59468L9.18059 7.05865ZM7.70089 7.45649L7.23947 8.26176L7.2354 8.25941L7.70089 7.45649ZM7.28697 6.91693L8.18333 6.67633L8.18361 6.67737L7.28697 6.91693ZM7.37618 6.24291L6.57302 5.77785L6.84113 5.31482H7.37618V6.24291ZM9.12797 3.2084L9.97323 3.59166L9.95501 3.63185L9.93306 3.67013L9.12797 3.2084ZM9.20308 3.04015L8.35506 2.66302L8.35507 2.66301L9.20308 3.04015ZM9.27737 2.84959L10.1522 3.15946L10.1521 3.15972L9.27737 2.84959ZM15.9961 4.3677L15.068 4.36773V4.3677H15.9961ZM15.9963 9.77919L16.9244 9.77916V9.77919H15.9963ZM15.7082 10.4762L16.365 11.1318L16.3644 11.1324L15.7082 10.4762ZM15.0111 10.7646V11.6927H11.7321L14.5246 9.97422L15.0111 10.7646ZM12.4948 1.09447V0.166377H13.7252L13.3871 1.34944L12.4948 1.09447ZM9.77084 3.02468L10.6457 3.3346L10.6449 3.3366L9.77084 3.02468ZM9.68163 3.25296L10.5295 3.63041L10.5293 3.6309L9.68163 3.25296ZM9.55781 3.50075L10.2567 4.1114L9.64956 4.80629L8.9512 4.20315L9.55781 3.50075ZM9.55421 3.49763L8.73416 3.06303L9.27948 2.03407L10.1608 2.79523L9.55421 3.49763ZM7.8295 6.50493L8.63318 6.9691L8.63279 6.96977L7.8295 6.50493ZM7.7926 6.78126L6.89641 7.02254L6.89564 7.01964L7.7926 6.78126ZM7.96217 7.00248L7.4999 7.80726L7.49817 7.80626L7.96217 7.00248ZM8.72671 6.79717L7.92176 6.33518L7.92304 6.33297L8.72671 6.79717ZM9.72034 5.07687L8.91667 4.61268L8.91724 4.6117L9.72034 5.07687ZM10.0149 4.95519L9.7747 5.85167L9.7724 5.85105L10.0149 4.95519ZM10.6381 11.1072L10.589 12.034L10.5771 12.0333L10.6381 11.1072ZM10.9974 10.9732L11.6536 11.6295L11.653 11.63L10.9974 10.9732ZM11.656 7.10969H12.584V7.10973L11.656 7.10969ZM11.6558 11.4506H10.7277V11.4506L11.6558 11.4506ZM12.4443 11.7775L13.1011 12.4331L13.0999 12.4344L12.4443 11.7775ZM13.1029 7.10969H14.031V7.10973L13.1029 7.10969ZM13.1027 10.606H12.1746V10.606L13.1027 10.606ZM13.8913 10.9728L14.547 11.6297L14.5464 11.6303L13.8913 10.9728ZM14.5499 7.10951H15.478V7.10962L14.5499 7.10951ZM14.5496 9.77932H13.6215V9.7792L14.5496 9.77932ZM15.3376 10.1063L15.9938 10.7626L15.9932 10.7632L15.3376 10.1063ZM15.4725 9.77932H14.5444V9.77929L15.4725 9.77932ZM15.4727 4.36783H16.4008V4.36785L15.4727 4.36783ZM12.4947 1.09452V2.02262H11.2643L11.6024 0.839557L12.4947 1.09452ZM15.0111 11.6927C14.6693 11.6927 14.3642 11.5981 14.111 11.4623L14.9882 9.82649C15.0002 9.83291 15.0078 9.83537 15.0108 9.83619C15.0134 9.83689 15.0131 9.83653 15.0111 9.83653V11.6927ZM15.4777 10.6444V10.6464H13.6215V10.6444H15.4777ZM15.4777 10.6464C15.4777 11.1555 15.2779 11.6399 14.9165 12.0003L13.6058 10.6861C13.6124 10.6795 13.6157 10.6738 13.6176 10.6692C13.6195 10.6645 13.6215 10.6574 13.6215 10.6464H15.4777ZM14.9174 11.9995C14.5572 12.3596 14.0737 12.5598 13.5643 12.5598V10.7036C13.575 10.7036 13.582 10.7016 13.5868 10.6997C13.5915 10.6977 13.5976 10.6942 13.6049 10.6869L14.9174 11.9995ZM13.5643 12.5598C13.2181 12.5598 12.9092 12.4629 12.6531 12.3234L13.5408 10.6933C13.5529 10.6999 13.5606 10.7024 13.5636 10.7032C13.5662 10.7039 13.566 10.7036 13.5643 10.7036V12.5598ZM14.0235 11.5625C13.9968 12.0193 13.8114 12.4624 13.471 12.8032L12.1578 11.4914C12.1612 11.4879 12.1632 11.4849 12.1649 11.481C12.1667 11.4768 12.1696 11.4683 12.1704 11.4542L14.0235 11.5625ZM13.4707 12.8035C13.1104 13.1638 12.6268 13.3638 12.1174 13.3638V11.5076C12.1282 11.5076 12.1353 11.5057 12.14 11.5037C12.1448 11.5017 12.1509 11.4983 12.1581 11.491L13.4707 12.8035ZM12.1174 13.3638C11.0928 13.3638 10.2706 12.5597 10.2114 11.5632L12.0643 11.4531C12.0653 11.4689 12.0717 11.4828 12.0832 11.4937C12.0887 11.499 12.0944 11.5024 12.0993 11.5044C12.1036 11.5062 12.1091 11.5076 12.1174 11.5076V13.3638ZM11.5792 12.3247C11.2794 12.4867 10.9239 12.5801 10.5442 12.5557L10.6632 10.7033C10.6633 10.7033 10.6652 10.7035 10.6701 10.7024C10.6754 10.7012 10.6844 10.6983 10.6966 10.6917L11.5792 12.3247ZM10.543 12.5556C9.51252 12.4881 8.75712 11.6117 8.75712 10.616H10.6133C10.6133 10.6474 10.6247 10.6716 10.639 10.6873C10.6529 10.7027 10.6624 10.7033 10.6645 10.7034L10.543 12.5556ZM8.75712 10.616V6.18441H10.6133V10.616H8.75712ZM10.489 6.64838L9.98439 7.52261L8.37679 6.59468L8.88142 5.72045L10.489 6.64838ZM9.98523 7.52115C9.62661 8.14507 8.95907 8.52873 8.24124 8.52873V6.67254C8.29815 6.67254 8.35017 6.64099 8.37595 6.59615L9.98523 7.52115ZM8.24124 8.52873C7.89027 8.52873 7.54478 8.4367 7.23947 8.26175L8.16231 6.65122C8.18727 6.66553 8.2147 6.67254 8.24124 6.67254V8.52873ZM7.2354 8.25941C6.81872 8.01784 6.51543 7.62472 6.39033 7.1565L8.18361 6.67737C8.18276 6.6742 8.18045 6.6686 8.17598 6.66278C8.17154 6.65699 8.16744 6.65419 8.16637 6.65357L7.2354 8.25941ZM6.39061 7.15754C6.26502 6.68968 6.33077 6.19622 6.57302 5.77785L8.17935 6.70797C8.18067 6.70569 8.18299 6.70039 8.18399 6.69289C8.18498 6.68537 8.18415 6.67937 8.18333 6.67633L6.39061 7.15754ZM7.37618 5.31482C6.92092 5.43415 6.58015 5.76574 6.57761 5.77002C6.57676 5.77145 6.5755 5.77359 6.5751 5.77428C6.57487 5.77468 6.57447 5.77535 6.57434 5.77558C6.57425 5.77573 6.57408 5.77602 6.57404 5.77609C6.57391 5.77631 6.57395 5.77624 6.5743 5.77564C6.57493 5.77455 6.57599 5.77272 6.57753 5.77006C6.58058 5.76479 6.58516 5.75686 6.59121 5.74639C6.60329 5.72548 6.62105 5.69475 6.64372 5.6555C6.68905 5.57702 6.75393 5.46469 6.83211 5.32932C6.98846 5.05859 7.19797 4.69576 7.41063 4.32745C7.83665 3.58959 8.27341 2.83294 8.32288 2.74668L9.93306 3.67013C9.88181 3.75948 9.44276 4.52008 9.01811 5.25557C8.80543 5.62394 8.59589 5.98681 8.4395 6.25761C8.36131 6.393 8.2964 6.50539 8.25102 6.58395C8.22834 6.62322 8.21051 6.65407 8.19834 6.67513C8.19227 6.68564 8.18756 6.69379 8.18434 6.69935C8.18275 6.7021 8.18143 6.70438 8.18047 6.70604C8.18003 6.70681 8.17947 6.70778 8.17893 6.70869C8.17874 6.70903 8.17814 6.71006 8.17742 6.71128C8.17697 6.71205 8.17567 6.71427 8.1748 6.71574C8.17223 6.72006 7.83145 7.05167 7.37618 7.171V5.31482ZM8.28271 2.82515C8.29292 2.80261 8.32529 2.72997 8.35506 2.66302L10.0511 3.41728C10.0228 3.48087 9.98696 3.56139 9.97323 3.59166L8.28271 2.82515ZM8.35507 2.66301C8.36797 2.63401 8.38224 2.59695 8.40262 2.53946L10.1521 3.15972C10.1269 3.23081 10.0936 3.32165 10.0511 3.41729L8.35507 2.66301ZM8.40253 2.53971C9.03112 0.765098 10.6133 -0.357166 12.4947 -0.357166V1.49902C11.4027 1.49902 10.5193 2.12296 10.1522 3.15946L8.40253 2.53971ZM12.4947 -0.357166C15.0073 -0.357166 16.9242 1.83377 16.9242 4.3677H15.068C15.068 2.71451 13.8435 1.49902 12.4947 1.49902V-0.357166ZM16.9242 4.36767L16.9244 9.77916L15.0682 9.77922L15.068 4.36773L16.9242 4.36767ZM16.9244 9.77919C16.9244 10.2881 16.7247 10.7715 16.365 11.1318L15.0513 9.82053C15.0586 9.81318 15.0622 9.80693 15.0642 9.80205C15.0662 9.79717 15.0682 9.79001 15.0682 9.77919H16.9244ZM16.3644 11.1324C16.0042 11.4927 15.5205 11.6927 15.0111 11.6927V9.83655C15.022 9.83655 15.0291 9.83457 15.0338 9.83261C15.0386 9.83065 15.0447 9.82716 15.0519 9.81992L16.3644 11.1324ZM14.5246 9.97422L14.5247 9.9742L15.4975 11.555L15.4975 11.5551L14.5246 9.97422ZM12.4948 2.02256C11.6124 2.02256 10.9432 2.4946 10.6457 3.3346L8.89602 2.71476C9.45479 1.13751 10.8221 0.166377 12.4948 0.166377V2.02256ZM10.6449 3.3366C10.6157 3.4187 10.5776 3.52238 10.5295 3.63041L8.83376 2.8755C8.85225 2.83397 8.87126 2.78416 8.89673 2.71276L10.6449 3.3366ZM10.5293 3.6309C10.4868 3.72622 10.4512 3.80672 10.4239 3.86125C10.407 3.89509 10.3796 3.94725 10.3399 4.00502C10.2997 4.06355 10.2599 4.1077 10.2567 4.1114L8.85892 2.89009C8.86109 2.8876 8.86038 2.88841 8.85928 2.88969C8.85786 2.89134 8.85426 2.89554 8.84953 2.90131C8.84462 2.90729 8.83845 2.915 8.83149 2.92418C8.82447 2.93344 8.81733 2.94329 8.81019 2.95368C8.79565 2.97484 8.78445 2.99337 8.77649 3.00739C8.76906 3.02047 8.76451 3.02953 8.76349 3.03157C8.76244 3.03367 8.7631 3.03243 8.76625 3.02568C8.7693 3.01914 8.77363 3.00972 8.77984 2.996C8.78599 2.9824 8.79336 2.96599 8.80244 2.94569C8.8115 2.92543 8.82185 2.90222 8.83398 2.87501L10.5293 3.6309ZM8.9512 4.20315L8.94759 4.20003L10.1608 2.79523L10.1644 2.79835L8.9512 4.20315ZM10.3743 3.93223C10.229 4.20631 9.81432 4.92404 8.63318 6.9691L7.02582 6.04076C8.22355 3.96697 8.60981 3.29766 8.73416 3.06303L10.3743 3.93223ZM8.63279 6.96977C8.70706 6.84144 8.72775 6.6866 8.68956 6.54288L6.89564 7.01964C6.80759 6.68832 6.8542 6.33734 7.02621 6.0401L8.63279 6.96977ZM8.68878 6.53998C8.65059 6.39813 8.55673 6.27407 8.42617 6.19871L7.49817 7.80626C7.20001 7.63414 6.98512 7.352 6.89642 7.02254L8.68878 6.53998ZM8.42444 6.19771C8.31879 6.13703 8.21605 6.13743 8.1451 6.15653C8.07442 6.17556 7.9838 6.2271 7.92177 6.33519L9.53165 7.25915C9.12716 7.96391 8.20277 8.21099 7.4999 7.80726L8.42444 6.19771ZM7.92304 6.33297L8.91667 4.61268L10.524 5.54106L9.53037 7.26136L7.92304 6.33297ZM8.91724 4.6117C9.18531 4.14888 9.73247 3.91727 10.2573 4.05933L9.7724 5.85105C10.067 5.93079 10.3741 5.79986 10.5234 5.54204L8.91724 4.6117ZM10.255 4.05871C10.7757 4.1982 11.137 4.67004 11.137 5.20806H9.28078C9.28078 5.50928 9.48296 5.77351 9.7747 5.85167L10.255 4.05871ZM11.137 5.20806V10.6162H9.28078V5.20806H11.137ZM11.137 10.6162C11.137 10.5104 11.0978 10.4143 11.0335 10.3407C10.9693 10.2673 10.8559 10.1914 10.699 10.1811L10.5771 12.0333C9.79583 11.9818 9.28078 11.3013 9.28078 10.6162H11.137ZM10.6871 10.1804C10.5774 10.1746 10.4435 10.2147 10.3417 10.3164L11.653 11.63C11.36 11.9225 10.9716 12.0542 10.589 12.034L10.6871 10.1804ZM10.3411 10.3169C10.253 10.405 10.2041 10.5257 10.2041 10.6467H12.0603C12.0603 11.0153 11.9155 11.3675 11.6536 11.6295L10.3411 10.3169ZM10.2041 10.6467V7.10969H12.0603V10.6467H10.2041ZM10.2041 7.10969C10.2041 6.45248 10.7368 5.9197 11.3941 5.9197V7.77589C11.762 7.77589 12.0603 7.47763 12.0603 7.10969H10.2041ZM11.3941 5.9197C12.0509 5.9197 12.584 6.45195 12.584 7.10969H10.7279C10.7279 7.47783 11.0265 7.77589 11.3941 7.77589V5.9197ZM12.584 7.10973L12.5839 11.4507L10.7277 11.4506L10.7279 7.10966L12.584 7.10973ZM12.5839 11.4506C12.5839 11.1926 12.3755 10.9842 12.1174 10.9842V12.8404C11.3503 12.8404 10.7277 12.2177 10.7277 11.4506H12.5839ZM12.1174 10.9842C11.9966 10.9842 11.8765 11.0329 11.7886 11.1206L13.0999 12.4344C12.8378 12.6959 12.4855 12.8404 12.1174 12.8404V10.9842ZM11.7874 11.1218C11.6996 11.2097 11.651 11.3299 11.651 11.4506H13.5072C13.5072 11.8187 13.3627 12.171 13.1011 12.4331L11.7874 11.1218ZM11.651 11.4506V7.10969H13.5072V11.4506H11.651ZM11.651 7.10969C11.651 6.45286 12.1832 5.9197 12.841 5.9197V7.77589C13.2091 7.77589 13.5072 7.47724 13.5072 7.10969H11.651ZM12.841 5.9197C13.4978 5.9197 14.031 6.45194 14.031 7.10969H12.1748C12.1748 7.47784 12.4734 7.77589 12.841 7.77589V5.9197ZM14.031 7.10973L14.0308 10.606L12.1746 10.606L12.1748 7.10965L14.031 7.10973ZM14.0308 10.606V10.6467H12.1746V10.606H14.0308ZM14.0308 10.6467C14.0308 10.388 13.8219 10.18 13.5645 10.18V12.0362C12.7977 12.0362 12.1746 11.414 12.1746 10.6467H14.0308ZM13.5645 10.18C13.4412 10.18 13.3218 10.2302 13.2363 10.3154L14.5464 11.6303C14.2857 11.89 13.9348 12.0362 13.5645 12.0362V10.18ZM13.2357 10.316C13.1469 10.4046 13.098 10.5257 13.098 10.6465H14.9542C14.9542 11.015 14.8096 11.3676 14.547 11.6297L13.2357 10.316ZM13.098 10.6465V7.10951H14.9542V10.6465H13.098ZM13.098 7.10951C13.098 6.45267 13.6303 5.91952 14.288 5.91952V7.7757C14.6562 7.7757 14.9542 7.47707 14.9542 7.10951H13.098ZM14.288 5.91952C14.9449 5.91952 15.478 6.45175 15.478 7.10951H13.6218C13.6218 7.47765 13.9205 7.7757 14.288 7.7757V5.91952ZM15.478 7.10962L15.4777 9.77943L13.6215 9.7792L13.6218 7.10939L15.478 7.10962ZM15.4777 9.77932C15.4777 9.52186 15.2697 9.31303 15.0111 9.31303V11.1692C14.2437 11.1692 13.6215 10.5461 13.6215 9.77932H15.4777ZM15.0111 9.31303C14.8893 9.31303 14.7692 9.36232 14.6819 9.44944L15.9932 10.7632C15.7321 11.0238 15.3804 11.1692 15.0111 11.1692V9.31303ZM14.6813 9.45006C14.5929 9.53843 14.5444 9.65905 14.5444 9.77932H16.4006C16.4006 10.1469 16.2567 10.4997 15.9938 10.7626L14.6813 9.45006ZM14.5444 9.77929L14.5446 4.3678L16.4008 4.36785L16.4006 9.77934L14.5444 9.77929ZM14.5446 4.36783C14.5446 2.99109 13.5436 2.02262 12.4947 2.02262V0.16643C14.7301 0.16643 16.4008 2.13511 16.4008 4.36783H14.5446ZM11.6024 0.839557L11.6024 0.839503L13.3871 1.34944L13.3871 1.34949L11.6024 0.839557Z" fill="#4CAF4F" mask="url(#path-1-inside-1_211_2339)"/>
<path d="M6.5285 15.7395C6.4042 15.8143 6.24348 15.774 6.16919 15.6498C6.09474 15.5259 6.13508 15.365 6.2589 15.2905M6.5285 15.7395L8.7911 12.695C9.0097 12.5637 9.298 12.6155 9.4328 12.8105M6.5285 15.7395L9.56137 13.92H9.56153L9.56186 13.9199M6.5285 15.7395L10.7259 14.2982C10.8318 14.2346 10.9066 14.1339 10.9364 14.0143M6.2589 15.2905L9.29193 13.471C9.39787 13.4074 9.47282 13.3065 9.50266 13.1873M6.2589 15.2905L6.2896 15.3417L6.3936 15.5151L6.39381 15.5154L6.44067 15.5935L6.49762 15.6885L6.49773 15.6884L6.49779 15.6884L6.49803 15.6882M6.2589 15.2905L6.28966 15.3417M9.50266 13.1873C9.53546 13.0565 9.51053 12.9226 9.4328 12.8105M9.50266 13.1873L9.57752 13.2061L9.57037 13.0522C9.56545 12.9463 9.53446 12.8523 9.48205 12.7767L9.4819 12.7765L9.4328 12.8105M9.50266 13.1873L9.57752 13.2061L9.5849 13.3649L9.43306 13.456H9.43285L9.32264 13.5221L9.32262 13.5221L9.32259 13.5221L6.28977 15.3416M9.4328 12.8105L9.48186 12.7765L7.24255 16.929C7.33777 16.8717 7.36927 16.7478 7.31153 16.6517C7.25427 16.5563 7.13001 16.525 7.0343 16.5823L10.0672 14.7629C10.1369 14.7211 10.2099 14.6895 10.2845 14.6678L10.7549 14.3466L10.7549 14.3465L10.7808 14.3289C10.8912 14.2535 10.9642 14.1491 10.9942 14.0289L10.9942 14.0288L10.9364 14.0143M6.28977 15.3416C6.38522 15.2846 6.50945 15.3155 6.56702 15.4109C6.56714 15.4111 6.56727 15.4114 6.56739 15.4116C6.62462 15.5076 6.59306 15.6311 6.49803 15.6882M6.28977 15.3416C6.28973 15.3416 6.28969 15.3417 6.28966 15.3417M6.28977 15.3416L6.28966 15.3417M6.49803 15.6882L9.53065 13.869L9.53071 13.8689L9.53086 13.8688C9.53096 13.8688 9.53105 13.8687 9.53114 13.8687L9.56137 13.9191L9.56153 13.9193L9.56186 13.9199M6.49803 15.6882L6.39404 15.5153L6.39384 15.5149L6.35865 15.4564L6.28966 15.3417M9.56186 13.9199V13.8494C9.62038 13.8111 9.67394 13.7666 9.72176 13.7171L10.221 13.4565L10.221 13.4565L10.2486 13.442C10.3289 13.4002 10.4098 13.3806 10.4867 13.3806C10.5283 13.3806 10.5711 13.3857 10.6148 13.3965C10.6148 13.3966 10.6149 13.3966 10.6149 13.3966C10.615 13.3966 10.6152 13.3966 10.6153 13.3967L10.713 13.0043M9.56186 13.9199L10.251 13.5065C10.3566 13.4431 10.4802 13.4246 10.6004 13.4545C10.72 13.4843 10.8208 13.5591 10.8843 13.6649C10.9478 13.7708 10.9663 13.8949 10.9364 14.0143M10.713 13.0043C10.713 13.0043 10.713 13.0043 10.713 13.0043M10.713 13.0043C10.9521 13.064 11.1555 13.215 11.2821 13.426L11.3332 13.3954M10.713 13.0043L10.7274 12.9464M10.713 13.0043L10.615 13.3966C10.7507 13.4305 10.8632 13.5139 10.9353 13.634C10.9353 13.6341 10.9353 13.6342 10.9354 13.6342C10.9354 13.6342 10.9354 13.6342 10.9354 13.6343C11.0077 13.755 11.0281 13.8934 10.9942 14.0286L10.9942 14.0288L10.9364 14.0143M10.713 13.0043C10.7129 13.0043 10.7129 13.0042 10.7128 13.0042L10.7122 13.0041C10.6405 12.9863 10.5679 12.9772 10.4956 12.9765M10.713 13.0043L10.7274 12.9464M10.2754 15.1096L10.537 14.9527L10.8067 15.1118C10.8875 15.1594 10.9486 15.2191 10.9899 15.2881L10.99 15.2883C10.99 15.2884 10.9901 15.2885 10.9901 15.2886L10.9392 15.3192M10.2754 15.1096L11.0492 15.6832C11.0829 15.5475 11.0623 15.4092 10.9902 15.2886L10.9392 15.3192M10.2754 15.1096L10.3061 15.1608M10.2754 15.1096L10.2753 15.1096L10.3061 15.1608M10.9392 15.3192C10.8082 15.1009 10.524 15.0299 10.3061 15.1608M10.9392 15.3192C11.0029 15.425 11.0214 15.5493 10.9915 15.6688L10.3061 15.1608M11.3814 15.0389C11.3836 15.0425 11.3858 15.0461 11.388 15.0498L11.3814 15.0389ZM11.3814 15.0389C11.3657 15.0511 11.3498 15.0631 11.3336 15.0747C11.3347 15.0764 11.3358 15.0782 11.3369 15.08L11.3814 15.0389ZM11.3092 14.3311C11.3426 14.267 11.3687 14.1986 11.3866 14.1269L11.3092 14.3311ZM11.3092 14.3311C11.3258 14.3415 11.3424 14.3522 11.3587 14.3633C11.3959 14.294 11.4249 14.2197 11.4444 14.1412C11.5082 13.8862 11.4687 13.6214 11.3332 13.3954M11.3092 14.3311L11.3867 14.1268C11.4464 13.8876 11.4087 13.6373 11.2824 13.4264L11.2822 13.4261C11.2822 13.4261 11.2822 13.426 11.2821 13.426L11.3332 13.3954M11.3332 13.3954C11.1979 13.1697 10.9828 13.0102 10.7274 12.9464M10.7274 12.9464L10.4904 12.9165M10.4904 12.9165C10.4925 12.9365 10.4943 12.9566 10.4956 12.9765M10.4904 12.9165C10.4891 12.9165 10.4879 12.9165 10.4867 12.9165C10.3298 12.9165 10.1756 12.9567 10.0339 13.0307M10.4904 12.9165L10.0339 13.0307M10.4956 12.9765C10.4963 12.9874 10.497 12.9983 10.4975 13.0091L10.4867 13.0096L10.1986 13.023M10.4956 12.9765C10.4926 12.9765 10.4897 12.9765 10.4867 12.9765C10.3888 12.9766 10.2916 12.9923 10.1986 13.023M10.1986 13.023L10.0339 13.0307M10.1986 13.023C10.1513 13.0386 10.1052 13.0582 10.0604 13.0815C10.0442 13.09 10.0282 13.099 10.0124 13.1084L10.0122 13.1085L9.97922 13.1283M10.0339 13.0307L9.76944 13.2542L9.76953 13.2541L9.95282 13.3C9.95281 13.3001 9.9528 13.3001 9.95279 13.3001C9.96709 13.2431 9.97585 13.1856 9.97922 13.1283M10.0339 13.0307L9.96307 12.8949M10.0339 13.0307C10.0266 12.8726 9.98489 12.7169 9.9049 12.5779C9.88671 12.586 9.86869 12.5944 9.85085 12.6032M9.97922 13.1283C9.9811 13.0965 9.98131 13.0648 9.97989 13.0332C9.9778 12.9866 9.97216 12.9404 9.96307 12.8949M9.97922 13.1283L9.96307 12.8949M9.96307 12.8949L9.81919 12.6193C9.82968 12.6138 9.84023 12.6085 9.85085 12.6032M9.96307 12.8949L9.81431 12.5463C9.82722 12.5649 9.8394 12.5839 9.85085 12.6032M9.96307 12.8949C9.94268 12.7929 9.90491 12.6944 9.85085 12.6032M11.0425 14.7121L11.1218 14.5776C11.0874 14.6098 11.0505 14.6394 11.0112 14.6663C10.9961 14.6766 10.9806 14.6865 10.9648 14.696L10.9646 14.6961L10.9311 14.7163L11.0425 14.7121ZM3.63167 12.5525L3.57891 12.5247C3.56921 12.5422 3.54507 12.5857 3.5094 12.6499C3.50057 12.6658 3.49103 12.683 3.48083 12.7014C3.49901 12.7105 3.51736 12.7184 3.53573 12.7253C3.5671 12.6688 3.59908 12.6112 3.63167 12.5525ZM7.77865 17.8231C7.7786 17.8231 7.77855 17.8232 7.7785 17.8232L7.77865 17.8231Z" fill="#4CAF4F" stroke="#4CAF4F" stroke-width="0.928093"/>
<path d="M19.4805 13.3886L19.4805 13.3886L19.4805 13.3886ZM19.4805 13.3886C19.3833 13.2144 19.3872 12.9999 19.4902 12.8282L19.4805 13.3886ZM13.7389 12.9763C13.6664 12.9769 13.5935 12.9861 13.5216 13.0041L13.7389 12.9763ZM13.7389 12.9763C13.7403 12.9564 13.742 12.9364 13.7442 12.9164L13.7389 12.9763ZM19.0629 13.714L19.0235 13.643L19.0629 13.714ZM17.9447 15.3415C17.9446 15.3415 17.9445 15.3414 17.9444 15.3413L17.9446 15.3414L17.9447 15.3415ZM16.4559 17.8235C16.4557 17.8234 16.4556 17.8233 16.4555 17.8233L16.4559 17.8235ZM16.4554 17.8232L16.4555 17.8233L16.4554 17.8232Z" fill="#4CAF4F" stroke="#4CAF4F" stroke-width="0.928093"/>
</svg>
