<svg width="34" height="22" viewBox="0 0 34 22" fill="none" xmlns="http://www.w3.org/2000/svg">
<path d="M32.1456 21.0625L32.1457 21.0626C32.2769 20.9716 32.3888 20.8554 32.4747 20.7208L32.768 20.9081L32.4747 20.7208C32.5607 20.5862 32.619 20.4358 32.6463 20.2784C32.6736 20.1211 32.6694 19.9599 32.6339 19.8042L32.9732 19.7267L32.6339 19.8042C32.5983 19.6485 32.5322 19.5014 32.4393 19.3714L32.4378 19.3693C31.1307 17.5113 29.3498 16.0374 27.2801 15.1009L26.7754 14.8725L27.2002 14.5169C28.46 13.4624 29.3642 12.0453 29.7897 10.4585C30.2153 8.87167 30.1414 7.19227 29.5782 5.64895C29.015 4.10562 27.9898 2.77337 26.6423 1.83358C25.2948 0.893787 23.6904 0.392126 22.0475 0.396897L22.0459 0.396901C21.3148 0.395683 20.5871 0.496636 19.8839 0.696829L19.8777 0.698607L19.8776 0.698548C19.7215 0.73988 19.5751 0.81187 19.447 0.910326C19.3189 1.00878 19.2116 1.13174 19.1315 1.27204C19.0514 1.41233 19 1.56717 18.9802 1.72752C18.9605 1.88788 18.9729 2.05056 19.0167 2.20608C19.0604 2.36161 19.1347 2.50687 19.2352 2.63342L18.9625 2.84979L19.2352 2.63342C19.3356 2.75997 19.4602 2.86527 19.6017 2.9432L19.4339 3.24807L19.6017 2.9432C19.7433 3.02112 19.8989 3.07012 20.0595 3.08733C20.2202 3.10453 20.3826 3.08961 20.5375 3.04343L20.5415 3.04224L20.5415 3.04226C21.0311 2.90257 21.5379 2.83218 22.0471 2.83314M32.1456 21.0625L22.0465 3.18118M32.1456 21.0625L32.1416 21.0654C31.9384 21.2107 31.6948 21.2884 31.445 21.2877C31.2497 21.2865 31.0575 21.2388 30.8842 21.1487C30.711 21.0585 30.5617 20.9285 30.4487 20.7693M32.1456 21.0625L30.1644 20.9701M22.0471 2.83314L22.0465 3.18118M22.0471 2.83314C22.0469 2.83314 22.0467 2.83314 22.0465 2.83314V3.18118M22.0471 2.83314C23.5238 2.83332 24.9399 3.41998 25.984 4.46413C27.0284 5.50844 27.615 6.92482 27.615 8.4017C27.615 9.87857 27.0284 11.295 25.984 12.3393C24.9397 13.3836 23.5234 13.9703 22.0465 13.9703C21.7234 13.9703 21.4136 14.0986 21.1851 14.327C20.9567 14.5555 20.8284 14.8653 20.8284 15.1884C20.8284 15.5114 20.9567 15.8213 21.1851 16.0497C21.4136 16.2782 21.7234 16.4065 22.0465 16.4065H22.0469C23.6943 16.4083 25.3172 16.8055 26.7793 17.5647C28.2412 18.3239 29.4996 19.4229 30.4487 20.7693M22.0465 3.18118C23.4311 3.18118 24.7589 3.73119 25.7379 4.71023C26.717 5.68927 27.267 7.01713 27.267 8.4017C27.267 9.78627 26.717 11.1141 25.7379 12.0932C24.7589 13.0722 23.4311 13.6222 22.0465 13.6222C21.6311 13.6222 21.2328 13.7872 20.939 14.0809C20.6453 14.3746 20.4803 14.773 20.4803 15.1884C20.4803 15.6037 20.6453 16.0021 20.939 16.2958C21.2328 16.5895 21.6311 16.7545 22.0465 16.7545C23.6382 16.7563 25.2063 17.1401 26.6189 17.8736C28.0315 18.6072 29.2474 19.6691 30.1644 20.9701M30.4487 20.7693C30.4485 20.7691 30.4484 20.7689 30.4483 20.7688L30.1644 20.9701M30.4487 20.7693C30.4487 20.7694 30.4488 20.7695 30.4489 20.7696L30.1644 20.9701M16.5628 14.5175L16.14 14.8731L16.6433 15.1009C18.7129 16.0374 20.4939 17.5113 21.801 19.3693L21.806 19.3764L21.8113 19.3832C21.9128 19.5133 21.9869 19.6626 22.0289 19.8222C22.071 19.9818 22.0802 20.1482 22.056 20.3115C22.0318 20.4747 21.9746 20.6313 21.8881 20.7718C21.8015 20.9123 21.6873 21.0337 21.5523 21.1287C21.4174 21.2237 21.2646 21.2903 21.1031 21.3245C20.9417 21.3586 20.775 21.3596 20.6131 21.3274C20.4513 21.2951 20.2977 21.2303 20.1616 21.1369C20.0256 21.0435 19.9099 20.9235 19.8217 20.784L19.8172 20.777L19.8124 20.7701C18.8653 19.4211 17.6072 18.3199 16.1447 17.5598C14.6821 16.7996 13.058 16.4027 11.4097 16.4027C9.76134 16.4027 8.13725 16.7996 6.67468 17.5598C5.21212 18.3199 3.95408 19.4211 3.00692 20.7701L3.00614 20.7712C2.8948 20.9311 2.74634 21.0616 2.5735 21.1516C2.40066 21.2415 2.20858 21.2882 2.01373 21.2877L2.0116 21.2877C1.7617 21.2885 1.51787 21.2108 1.31457 21.0654L1.3129 21.0643C1.04938 20.8782 0.870407 20.5953 0.815221 20.2775C0.760052 19.9598 0.833103 19.6332 1.01835 19.3693C2.32545 17.5113 4.1064 16.0374 6.17602 15.1009L6.67933 14.8731L6.25658 14.5175C5.00015 13.4605 4.09913 12.0427 3.67568 10.4564C3.25222 8.87006 3.32681 7.19188 3.88934 5.64937C4.45187 4.10685 5.47512 2.77463 6.82036 1.83331C8.16561 0.891983 9.76779 0.387097 11.4097 0.387097C13.0516 0.387097 14.6537 0.891983 15.999 1.83331C17.3442 2.77463 18.3675 4.10685 18.93 5.64937C19.4925 7.19188 19.5671 8.87006 19.1437 10.4564C18.7202 12.0427 17.8192 13.4605 16.5628 14.5175ZM6.77958 5.30797C6.1677 6.22372 5.84111 7.30034 5.84111 8.4017C5.84111 9.87857 6.4278 11.295 7.47211 12.3393C8.51641 13.3836 9.9328 13.9703 11.4097 13.9703C12.511 13.9703 13.5876 13.6437 14.5034 13.0318C15.4191 12.4199 16.1329 11.5502 16.5543 10.5327C16.9758 9.51517 17.0861 8.39552 16.8712 7.31533C16.6564 6.23513 16.126 5.24291 15.3472 4.46413C14.5685 3.68536 13.5762 3.155 12.496 2.94014C11.4158 2.72528 10.2962 2.83555 9.27867 3.25702C8.26115 3.67849 7.39146 4.39223 6.77958 5.30797Z" fill="#4CAF4F" stroke="#4CAF4F" stroke-width="0.696069"/>
</svg>
