<svg width="34" height="34" viewBox="0 0 34 34" fill="none" xmlns="http://www.w3.org/2000/svg">
<path d="M4.13269 11.6342V11.9822H4.48073H29.5392H29.8873V11.6342V10.068C29.8873 9.28345 29.5756 8.53099 29.0208 7.97621C28.466 7.42142 27.7136 7.10974 26.929 7.10974H7.09099C6.3064 7.10974 5.55394 7.42142 4.99916 7.97621C4.44437 8.53099 4.13269 9.28345 4.13269 10.068V11.6342ZM29.8873 13.7224V13.3744H29.5392H4.48073H4.13269V13.7224V23.6414C4.13269 24.426 4.44437 25.1784 4.99916 25.7332C5.55394 26.288 6.3064 26.5997 7.09099 26.5997H26.929C27.7136 26.5997 28.466 26.288 29.0208 25.7332C29.5756 25.1784 29.8873 24.426 29.8873 23.6414V13.7224ZM2.74055 10.068C2.74055 8.91423 3.1989 7.80768 4.01476 6.99182C4.83063 6.17595 5.93718 5.7176 7.09099 5.7176H26.929C28.0828 5.7176 29.1893 6.17595 30.0052 6.99182C30.8211 7.80768 31.2794 8.91423 31.2794 10.068V23.6414C31.2794 24.7952 30.8211 25.9017 30.0052 26.7176C29.1893 27.5335 28.0828 27.9918 26.929 27.9918H7.09099C5.93718 27.9918 4.83063 27.5335 4.01476 26.7176C3.1989 25.9017 2.74055 24.7952 2.74055 23.6414V10.068ZM22.2305 20.3351H25.3628C25.5474 20.3351 25.7245 20.4084 25.855 20.5389C25.9855 20.6695 26.0589 20.8465 26.0589 21.0311C26.0589 21.2157 25.9855 21.3928 25.855 21.5233C25.7245 21.6539 25.5474 21.7272 25.3628 21.7272H22.2305C22.0459 21.7272 21.8688 21.6539 21.7383 21.5233C21.6078 21.3928 21.5344 21.2157 21.5344 21.0311C21.5344 20.8465 21.6078 20.6695 21.7383 20.5389C21.8688 20.4084 22.0459 20.3351 22.2305 20.3351Z" fill="#4CAF4F" stroke="#4CAF4F" stroke-width="0.696069"/>
</svg>
