<svg width="37" height="34" viewBox="0 0 37 34" fill="none" xmlns="http://www.w3.org/2000/svg">
<g clip-path="url(#clip0_211_2076)">
<path d="M8.81748 10.0037C7.40395 10.0037 6.04833 10.5652 5.04882 11.5647L1.78683 14.8267C0.787319 15.8262 0.2258 17.1818 0.2258 18.5953C0.2258 21.5389 2.61199 23.9251 5.55551 23.9251C6.96904 23.9251 8.32466 23.3635 9.32417 22.364L11.5805 20.1077C11.5805 20.1076 11.5805 20.1077 11.5805 20.1077L18.1547 13.5335C18.6321 13.0561 19.2795 12.7879 19.9546 12.7879C21.0848 12.7879 22.043 13.5246 22.3752 14.5439L24.45 12.4691C23.5035 10.9867 21.8439 10.0037 19.9546 10.0037C18.5411 10.0037 17.1854 10.5652 16.1859 11.5647L7.35541 20.3952C6.87804 20.8726 6.23061 21.1408 5.55551 21.1408C4.1497 21.1408 3.01008 20.0012 3.01008 18.5953C3.01008 17.9202 3.27825 17.2728 3.75561 16.7954L7.01758 13.5335C7.49495 13.0561 8.14238 12.7879 8.81748 12.7879C9.94775 12.7879 10.9059 13.5246 11.2381 14.544L13.313 12.4692C12.3665 10.9867 10.7068 10.0037 8.81748 10.0037Z" fill="#394149"/>
<path d="M18.4925 20.3952C18.0152 20.8726 17.3677 21.1408 16.6926 21.1408C15.5625 21.1408 14.6044 20.4043 14.2721 19.3851L12.1974 21.4599C13.1439 22.9422 14.8035 23.9251 16.6926 23.9251C18.1062 23.9251 19.4618 23.3635 20.4613 22.364L29.2918 13.5335C29.7692 13.0561 30.4166 12.7879 31.0917 12.7879C32.4975 12.7879 33.6371 13.9276 33.6371 15.3334C33.6371 16.0085 33.369 16.6559 32.8916 17.1333L29.6296 20.3952C29.1523 20.8726 28.5048 21.1408 27.8297 21.1408C26.6995 21.1408 25.7414 20.4042 25.4091 19.3849L23.3344 21.4597C24.2809 22.9421 25.9405 23.9251 27.8297 23.9251C29.2433 23.9251 30.5989 23.3635 31.5984 22.364L34.8604 19.102C35.8599 18.1025 36.4214 16.7469 36.4214 15.3334C36.4214 12.3899 34.0352 10.0037 31.0917 10.0037C29.6782 10.0037 28.3225 10.5652 27.323 11.5647L18.4925 20.3952Z" fill="#394149"/>
</g>
<defs>
<clipPath id="clip0_211_2076">
<rect width="36.1956" height="13.9214" fill="white" transform="translate(0.2258 10.0037)"/>
</clipPath>
</defs>
</svg>
