<svg width="46" height="40" viewBox="0 0 46 40" fill="none" xmlns="http://www.w3.org/2000/svg">
<path d="M45.666 26.8835C45.666 33.8032 40.0564 39.4127 33.1367 39.4127L14.3428 39.4127C12.4207 39.4127 10.8625 37.8545 10.8625 35.9324L10.8625 12.266C10.8625 8.42172 13.9789 5.30531 17.8232 5.30531L42.1856 5.30532C44.1078 5.30532 45.666 6.86352 45.666 8.78566L45.666 26.8835Z" fill="#E8F5E9"/>
<path d="M20.1283 16.8911C19.9607 16.8911 19.805 16.8451 19.6668 16.7709V16.7729C19.6668 17.0366 19.5643 17.2843 19.3783 17.4697C19.1924 17.6557 18.9449 17.7582 18.6815 17.7582C18.5115 17.7582 18.3539 17.711 18.2141 17.6349C18.2 17.8761 18.1036 18.1016 17.9316 18.2738C17.7456 18.4598 17.4982 18.5623 17.2346 18.5623C16.7109 18.5623 16.2857 18.1506 16.2551 17.6347C16.093 17.7223 15.9099 17.7682 15.7209 17.7561C15.2058 17.7223 14.8024 17.2772 14.8024 16.7426V12.3109L14.2978 13.1852C14.1056 13.5196 13.7458 13.7272 13.3584 13.7272C13.1697 13.7272 12.9832 13.6776 12.8181 13.583C12.6124 13.4638 12.4653 13.2724 12.4042 13.0435C12.3427 12.8144 12.3745 12.5748 12.4934 12.3694C12.4935 12.3694 14.1444 9.51054 14.2452 9.33493C14.2571 9.30853 14.2912 9.23195 14.3203 9.16667C14.348 9.10436 14.3718 9.0404 14.3946 8.97611C14.8924 7.57055 16.1252 6.69745 17.6119 6.69745C19.5426 6.69745 21.1133 8.40067 21.1133 10.4942L21.1135 15.9057C21.1135 16.1691 21.0112 16.4166 20.8254 16.6027C20.6394 16.7887 20.3919 16.8912 20.1282 16.8912L20.1283 16.8911ZM17.612 7.221C16.3344 7.221 15.3162 7.94258 14.888 9.15121C14.8606 9.22795 14.8321 9.3047 14.7988 9.37948C14.7022 9.59612 14.7022 9.59612 14.675 9.62727L14.6714 9.62416C14.5366 9.87851 14.1361 10.572 12.9467 12.6315C12.8978 12.7159 12.8849 12.814 12.9098 12.9078C12.935 13.0016 12.9956 13.0806 13.0794 13.129C13.3395 13.2784 13.6957 13.182 13.8439 12.9237L14.8375 11.2034C14.8969 11.1009 15.0169 11.0506 15.1321 11.0817C15.2465 11.1124 15.3261 11.2162 15.3261 11.3346V16.7427C15.3261 16.9979 15.5186 17.2181 15.7552 17.2337C15.8917 17.2409 16.0189 17.1952 16.1145 17.0997C16.2015 17.0128 16.2493 16.897 16.2493 16.7732V13.2362C16.2493 13.0916 16.3666 12.9743 16.5112 12.9743C16.6559 12.9743 16.7731 13.0914 16.7731 13.2362L16.773 17.5772C16.773 17.8317 16.9801 18.0388 17.2346 18.0388C17.3583 18.0388 17.4744 17.9909 17.5615 17.904C17.6484 17.8169 17.6963 17.7008 17.6963 17.5772V13.2362C17.6963 13.0916 17.8133 12.9743 17.9581 12.9743C18.1028 12.9743 18.22 13.0914 18.22 13.2362L18.2199 16.7325V16.7732C18.2199 17.0275 18.427 17.2347 18.6817 17.2347C18.8052 17.2347 18.9209 17.1866 19.0085 17.0994C19.0954 17.0126 19.1433 16.8968 19.1433 16.773V13.236C19.1433 13.0914 19.2604 12.9741 19.4052 12.9741C19.5499 12.9741 19.6671 13.0912 19.6671 13.236L19.6668 15.9058C19.6668 16.1605 19.8739 16.3676 20.1283 16.3676C20.2521 16.3676 20.3678 16.3196 20.4548 16.2328C20.542 16.1456 20.5897 16.0295 20.5897 15.9058L20.5899 10.4944C20.5899 8.68963 19.254 7.22105 17.6119 7.22105L17.612 7.221Z" fill="#103E13"/>
<path d="M9.83859 20.6523L13.6389 18.3725C14.0971 18.0973 14.6867 18.2142 14.9806 18.6388C15.0878 18.7934 15.1426 18.9737 15.1511 19.1572C15.2928 19.0832 15.4469 19.0431 15.6039 19.0431C15.6842 19.0431 15.7649 19.0531 15.8446 19.0729C16.1 19.1367 16.3151 19.2963 16.4504 19.5219C16.5859 19.7479 16.6254 20.0127 16.5616 20.2678C16.5027 20.5037 16.3592 20.7024 16.1597 20.8386C16.2992 20.921 16.4196 21.0333 16.5052 21.1763C16.6407 21.4023 16.6802 21.667 16.6165 21.9223C16.5528 22.1773 16.3932 22.3925 16.1672 22.5281L16.1659 22.5289C16.303 22.6111 16.4212 22.7223 16.5059 22.8631C16.6415 23.0891 16.681 23.354 16.6172 23.6093C16.5533 23.8645 16.3937 24.0796 16.168 24.2151L11.5278 26.9989C10.6617 27.5182 9.66053 27.6975 8.70905 27.5032C7.74904 27.307 6.95398 26.7552 6.47056 25.9493C5.70552 24.6743 5.82017 23.1679 6.76919 22.0181C6.81265 21.9656 6.85545 21.9122 6.89432 21.8567C6.93548 21.7982 6.98353 21.7293 6.99993 21.7057C7.09816 21.5302 8.70104 18.6423 8.70088 18.6426C8.86274 18.3506 9.16612 18.1852 9.47901 18.1854C9.62497 18.1854 9.77305 18.2213 9.90967 18.2971C10.0746 18.3892 10.2132 18.5236 10.3101 18.6854C10.5094 19.0175 10.5164 19.4331 10.3288 19.7694L9.83859 20.6523ZM9.86138 18.9546C9.81055 18.8699 9.74068 18.8023 9.65524 18.7544C9.47862 18.6567 9.25625 18.7203 9.15901 18.8963C8.01206 20.9626 7.62109 21.6667 7.4702 21.9173L7.47365 21.9182C7.46102 21.9601 7.46102 21.9601 7.32294 22.1574C7.27604 22.2242 7.22504 22.2883 7.17305 22.3514C6.357 23.3401 6.26225 24.5844 6.91935 25.68C7.32638 26.3586 7.99909 26.8238 8.81362 26.9901C9.63702 27.1575 10.5049 27.0017 11.2581 26.5498L15.8988 23.7659C16.0048 23.7024 16.0795 23.6016 16.1094 23.482C16.1392 23.3626 16.1207 23.2385 16.0571 23.1325C15.9262 22.9144 15.642 22.8428 15.4239 22.9741L13.1346 24.3476C13.0106 24.422 12.8495 24.382 12.7753 24.2579C12.7008 24.1339 12.741 23.973 12.865 23.8986L15.1545 22.5251L15.898 22.0791C16.0039 22.0154 16.0789 21.9146 16.1087 21.7954C16.1386 21.6758 16.12 21.5515 16.0564 21.4457C15.9254 21.2274 15.6412 21.1564 15.4232 21.2873L12.3902 23.1068C12.2659 23.1814 12.1053 23.1411 12.0309 23.0171C11.9564 22.8931 11.9968 22.7323 12.1206 22.6578L15.8431 20.4247C15.949 20.3611 16.0238 20.2604 16.0536 20.1409C16.0835 20.0215 16.0649 19.8973 16.0015 19.7914C15.938 19.6856 15.8372 19.6108 15.7176 19.581C15.5974 19.5511 15.4738 19.5697 15.3681 19.633L14.679 20.0464C14.6789 20.0464 14.6789 20.0466 14.6787 20.0466H14.6786L11.6457 21.8661C11.5214 21.9409 11.3607 21.9005 11.2864 21.7764C11.2119 21.6524 11.2523 21.4915 11.3761 21.4171L14.4091 19.5976C14.5151 19.5339 14.59 19.4331 14.6198 19.3139C14.6526 19.183 14.6277 19.0492 14.55 18.937C14.4152 18.742 14.1269 18.6902 13.9083 18.8215L9.27095 21.6035C9.16944 21.6642 9.0394 21.6494 8.95428 21.5673C8.86901 21.485 8.84982 21.3556 8.90722 21.2521L9.8715 19.5147C9.96826 19.3411 9.96448 19.1266 9.86133 18.9547L9.86138 18.9546Z" fill="#103E13"/>
<path d="M27.9983 25.9492C27.515 26.7552 26.7202 27.3069 25.76 27.5031C24.8084 27.6971 23.8075 27.5182 22.9413 26.9988L18.3006 24.2149C18.0748 24.0794 17.9151 23.8642 17.8511 23.6087C17.7876 23.3537 17.8273 23.0889 17.9626 22.8632C18.0471 22.7222 18.1655 22.611 18.3027 22.5288L18.3014 22.528C18.0756 22.3926 17.9159 22.1774 17.8523 21.9222C17.7883 21.667 17.828 21.402 17.9634 21.1761C18.0507 21.0309 18.1702 20.9174 18.3067 20.8369C18.1086 20.7006 17.9659 20.5027 17.9072 20.2679C17.8432 20.0125 17.8829 19.7477 18.0184 19.522C18.1537 19.2962 18.369 19.1366 18.6242 19.0728C18.7039 19.0528 18.7847 19.043 18.8648 19.043C19.0219 19.0432 19.176 19.083 19.3177 19.1571C19.3264 18.9736 19.381 18.7934 19.4883 18.6387C19.7823 18.2145 20.3714 18.0971 20.8302 18.3724L24.6304 20.6519L24.1406 19.7696C23.9527 19.4328 23.9595 19.0172 24.1588 18.685C24.2559 18.5233 24.3946 18.389 24.5604 18.296C24.6967 18.2205 24.8443 18.1848 24.9899 18.1848C25.3026 18.185 25.6063 18.3499 25.768 18.642C26.3315 19.6573 27.3948 21.5721 27.4696 21.7057C27.4855 21.7289 27.5336 21.7977 27.5747 21.8563C27.6139 21.9119 27.6562 21.965 27.7 22.0178C28.6489 23.1681 28.7633 24.6743 27.9983 25.9492L27.9983 25.9492ZM27.296 22.3516C27.2438 22.2884 27.1927 22.224 27.1461 22.1576C27.0044 21.9565 27.0008 21.9513 26.9901 21.8986C26.8245 21.6246 26.4204 20.8971 25.3097 18.8961C25.2123 18.7204 24.9909 18.6563 24.8146 18.7537C24.7279 18.8023 24.6582 18.87 24.6073 18.9548C24.5044 19.1265 24.5004 19.341 24.5977 19.5152L25.5616 21.252C25.6192 21.3556 25.6 21.4849 25.5149 21.5672C25.4299 21.6497 25.3 21.6641 25.198 21.6034L20.5607 18.8214C20.3421 18.6904 20.054 18.7417 19.9188 18.9369C19.8411 19.0491 19.8163 19.1829 19.8488 19.3136C19.8787 19.433 19.9536 19.5337 20.0597 19.5973C20.06 19.5975 20.0602 19.5978 20.0605 19.598L23.0926 21.417C23.2166 21.4914 23.2568 21.6521 23.1823 21.7763C23.1078 21.9001 22.9473 21.9406 22.823 21.866L19.1005 19.6329C18.9949 19.5696 18.8706 19.5509 18.7512 19.5809C18.6315 19.6108 18.5308 19.6855 18.4673 19.7916C18.4037 19.8974 18.3854 20.0216 18.4149 20.1409C18.4447 20.2603 18.5197 20.3612 18.6256 20.4248L19.35 20.8592L22.3479 22.6579C22.4719 22.7324 22.5121 22.8931 22.4376 23.0172C22.3632 23.141 22.2026 23.1814 22.0783 23.1069L19.0456 21.2874C18.8275 21.1562 18.5434 21.2274 18.4123 21.4458C18.3486 21.5518 18.3303 21.6759 18.3598 21.7953C18.3896 21.9147 18.4646 22.0154 18.5707 22.0792L19.3142 22.5252L21.6034 23.8987C21.7273 23.9731 21.7675 24.1339 21.6931 24.258C21.6186 24.3818 21.4581 24.4225 21.3338 24.3477L19.0446 22.9743C18.939 22.911 18.8152 22.8923 18.6951 22.9223C18.5757 22.9521 18.4747 23.0269 18.4113 23.1327C18.3478 23.2386 18.3293 23.3629 18.3588 23.4821C18.3886 23.6015 18.4636 23.7022 18.5697 23.766L23.2104 26.5499C23.9635 27.0017 24.8319 27.1582 25.6549 26.9902C26.4692 26.8239 27.142 26.3587 27.549 25.6801C28.2068 24.5843 28.1121 23.3399 27.2963 22.3515L27.296 22.3516Z" fill="#103E13"/>
</svg>
