<svg width="24" height="23" viewBox="0 0 24 23" fill="none" xmlns="http://www.w3.org/2000/svg">
<path opacity="0.1" fill-rule="evenodd" clip-rule="evenodd" d="M0.85144 11.7743C0.85144 5.62345 5.8377 0.637192 11.9886 0.637192C18.1394 0.637192 23.1257 5.62345 23.1257 11.7743C23.1257 17.9252 18.1394 22.9114 11.9886 22.9114C5.8377 22.9114 0.85144 17.9252 0.85144 11.7743Z" fill="white"/>
<path fill-rule="evenodd" clip-rule="evenodd" d="M11.9892 5.8345C10.376 5.8345 10.1736 5.84156 9.53998 5.87039C8.90763 5.89935 8.476 5.99946 8.09833 6.14635C7.70766 6.29806 7.37626 6.501 7.04611 6.83129C6.7157 7.16144 6.51276 7.49284 6.36055 7.88338C6.21329 8.26118 6.11305 8.69293 6.08459 9.32503C6.05625 9.95862 6.04883 10.1612 6.04883 11.7744C6.04883 13.3875 6.05601 13.5894 6.08471 14.2229C6.1138 14.8553 6.21391 15.2869 6.36067 15.6646C6.51251 16.0553 6.71545 16.3867 7.04573 16.7168C7.37577 17.0472 7.70716 17.2507 8.09758 17.4024C8.47551 17.5493 8.90726 17.6494 9.53948 17.6783C10.1731 17.7072 10.3754 17.7142 11.9884 17.7142C13.6017 17.7142 13.8036 17.7072 14.4371 17.6783C15.0695 17.6494 15.5016 17.5493 15.8795 17.4024C16.2701 17.2507 16.601 17.0472 16.931 16.7168C17.2614 16.3867 17.4644 16.0553 17.6166 15.6647C17.7626 15.2869 17.8628 14.8552 17.8925 14.2231C17.921 13.5895 17.9284 13.3875 17.9284 11.7744C17.9284 10.1612 17.921 9.95874 17.8925 9.32516C17.8628 8.69281 17.7626 8.26118 17.6166 7.88351C17.4644 7.49284 17.2614 7.16144 16.931 6.83129C16.6006 6.50088 16.2702 6.29794 15.8792 6.14635C15.5005 5.99946 15.0686 5.89935 14.4363 5.87039C13.8027 5.84156 13.601 5.8345 11.9873 5.8345H11.9892ZM11.4563 6.9049C11.6144 6.90465 11.7909 6.9049 11.9892 6.9049C13.5751 6.9049 13.7631 6.91059 14.3893 6.93905C14.9685 6.96553 15.2828 7.0623 15.4922 7.14361C15.7694 7.25127 15.967 7.37996 16.1748 7.58786C16.3827 7.79575 16.5114 7.99375 16.6193 8.27094C16.7006 8.48007 16.7975 8.79439 16.8238 9.37353C16.8523 9.99969 16.8585 10.1878 16.8585 11.773C16.8585 13.3582 16.8523 13.5463 16.8238 14.1724C16.7973 14.7516 16.7006 15.0659 16.6193 15.275C16.5116 15.5522 16.3827 15.7496 16.1748 15.9574C15.9669 16.1653 15.7695 16.294 15.4922 16.4016C15.283 16.4833 14.9685 16.5798 14.3893 16.6063C13.7632 16.6348 13.5751 16.6409 11.9892 16.6409C10.4031 16.6409 10.2151 16.6348 9.58896 16.6063C9.00982 16.5796 8.6955 16.4828 8.486 16.4015C8.20881 16.2938 8.01081 16.1651 7.80292 15.9572C7.59502 15.7493 7.46632 15.5518 7.35842 15.2745C7.27712 15.0654 7.18022 14.7511 7.15386 14.1719C7.1254 13.5458 7.11971 13.3577 7.11971 11.7715C7.11971 10.1853 7.1254 9.9982 7.15386 9.37204C7.18035 8.79291 7.27712 8.47859 7.35842 8.26921C7.46608 7.99202 7.59502 7.79402 7.80292 7.58612C8.01081 7.37823 8.20881 7.24953 8.486 7.14163C8.69538 7.05995 9.00982 6.96343 9.58896 6.93682C10.1369 6.91208 10.3493 6.90465 11.4563 6.90341V6.9049ZM15.1598 7.89116C14.7663 7.89116 14.447 8.21006 14.447 8.6037C14.447 8.99721 14.7663 9.31648 15.1598 9.31648C15.5533 9.31648 15.8726 8.99721 15.8726 8.6037C15.8726 8.21018 15.5533 7.89116 15.1598 7.89116ZM11.9892 8.72398C10.3046 8.72398 8.93882 10.0898 8.93882 11.7743C8.93882 13.4589 10.3046 14.8241 11.9892 14.8241C13.6738 14.8241 15.0391 13.4589 15.0391 11.7743C15.0391 10.0898 13.6738 8.72398 11.9892 8.72398ZM11.9892 9.79439C13.0826 9.79439 13.9691 10.6808 13.9691 11.7743C13.9691 12.8678 13.0826 13.7543 11.9892 13.7543C10.8956 13.7543 10.0092 12.8678 10.0092 11.7743C10.0092 10.6808 10.8956 9.79439 11.9892 9.79439Z" fill="white"/>
</svg>
