<svg width="23" height="23" viewBox="0 0 23 23" fill="none" xmlns="http://www.w3.org/2000/svg">
<path opacity="0.1" fill-rule="evenodd" clip-rule="evenodd" d="M0.0854492 11.7743C0.0854492 5.62343 5.0717 0.637177 11.2226 0.637177C17.3734 0.637177 22.3597 5.62343 22.3597 11.7743C22.3597 17.9251 17.3734 22.9114 11.2226 22.9114C5.0717 22.9114 0.0854492 17.9251 0.0854492 11.7743Z" fill="white"/>
<path fill-rule="evenodd" clip-rule="evenodd" d="M15.8638 7.94562C16.3749 8.08588 16.7775 8.49917 16.9141 9.02401C17.1624 9.97522 17.1624 11.9599 17.1624 11.9599C17.1624 11.9599 17.1624 13.9446 16.9141 14.8958C16.7775 15.4207 16.3749 15.834 15.8638 15.9743C14.9374 16.2292 11.2226 16.2292 11.2226 16.2292C11.2226 16.2292 7.5077 16.2292 6.5813 15.9743C6.07014 15.834 5.66758 15.4207 5.53096 14.8958C5.28278 13.9446 5.28278 11.9599 5.28278 11.9599C5.28278 11.9599 5.28278 9.97522 5.53096 9.02401C5.66758 8.49917 6.07014 8.08588 6.5813 7.94562C7.5077 7.6907 11.2226 7.6907 11.2226 7.6907C11.2226 7.6907 14.9374 7.6907 15.8638 7.94562ZM10.1089 10.2893V14.0017L13.0788 12.1456L10.1089 10.2893Z" fill="white"/>
</svg>
